<svg xmlns="http://www.w3.org/2000/svg" xmlns:xlink="http://www.w3.org/1999/xlink" width="1080" zoomAndPan="magnify" viewBox="0 0 810 809.999993" height="1080" preserveAspectRatio="xMidYMid meet" version="1.0"><defs><clipPath id="d8147ee920"><path d="M 160.480469 0 L 649.480469 0 L 649.480469 668 L 160.480469 668 Z M 160.480469 0 " clip-rule="nonzero"/></clipPath></defs><g clip-path="url(#d8147ee920)"><path fill="#100f0d" d="M 405.0625 40.105469 C 518.113281 40.105469 610.089844 132.074219 610.089844 245.117188 C 610.089844 333.96875 474.027344 527.460938 405.0625 616.226562 C 336.128906 527.460938 200.066406 333.96875 200.066406 245.117188 C 200.066406 132.074219 292.042969 40.105469 405.0625 40.105469 Z M 405.0625 667.867188 C 411.035156 667.867188 416.695312 665.160156 420.453125 660.5 C 429.792969 648.890625 649.609375 374.757812 649.609375 245.117188 C 649.609375 110.273438 539.910156 0.574219 405.0625 0.574219 C 270.246094 0.574219 160.546875 110.273438 160.546875 245.117188 C 160.546875 374.757812 380.332031 648.890625 389.675781 660.5 C 393.433594 665.160156 399.09375 667.867188 405.0625 667.867188 " fill-opacity="1" fill-rule="nonzero"/></g><path fill="#100f0d" d="M 405.039062 257.375 C 364.714844 257.375 331.929688 224.566406 331.929688 184.238281 C 331.929688 143.910156 364.714844 111.113281 405.039062 111.113281 C 445.363281 111.113281 478.171875 143.910156 478.171875 184.238281 C 478.171875 224.566406 445.363281 257.375 405.039062 257.375 Z M 517.703125 184.238281 C 517.703125 122.117188 467.164062 71.582031 405.039062 71.582031 C 342.945312 71.582031 292.402344 122.117188 292.402344 184.238281 C 292.402344 246.367188 342.945312 296.90625 405.039062 296.90625 C 467.164062 296.90625 517.703125 246.367188 517.703125 184.238281 " fill-opacity="1" fill-rule="nonzero"/><path fill="#100f0d" d="M 549.84375 583.898438 C 539.988281 579.203125 528.203125 583.46875 523.523438 593.296875 C 518.832031 603.160156 523.050781 614.953125 532.910156 619.621094 C 568.886719 636.667969 589.523438 659.316406 589.523438 681.785156 C 589.523438 723.363281 513.761719 769.699219 405.0625 769.699219 C 296.363281 769.699219 220.632812 723.363281 220.632812 681.785156 C 220.632812 659.316406 241.273438 636.667969 277.246094 619.621094 C 287.105469 614.953125 291.324219 603.160156 286.636719 593.296875 C 281.984375 583.4375 270.171875 579.195312 260.3125 583.898438 C 209.980469 607.746094 181.101562 643.429688 181.101562 681.785156 C 181.101562 753.25 279.480469 809.230469 405.0625 809.230469 C 530.675781 809.230469 629.054688 753.25 629.054688 681.785156 C 629.054688 643.429688 600.179688 607.746094 549.84375 583.898438 " fill-opacity="1" fill-rule="nonzero"/></svg>