<svg xmlns="http://www.w3.org/2000/svg" xmlns:xlink="http://www.w3.org/1999/xlink" width="1080" zoomAndPan="magnify" viewBox="0 0 810 809.999993" height="1080" preserveAspectRatio="xMidYMid meet" version="1.0"><path fill="#000000" d="M 584.46875 810 L 225.53125 810 C 101.648438 810 0 708.351562 0 584.46875 L 0 225.53125 C 0 101.648438 101.648438 0 225.53125 0 L 584.46875 0 C 708.351562 0 810 101.648438 810 225.53125 L 810 584.46875 C 810 708.351562 708.351562 810 584.46875 810 Z M 225.53125 50.824219 C 130.234375 50.824219 50.824219 130.234375 50.824219 225.53125 L 50.824219 584.46875 C 50.824219 679.765625 130.234375 759.175781 225.53125 759.175781 L 584.46875 759.175781 C 679.765625 759.175781 759.175781 679.765625 759.175781 584.46875 L 759.175781 225.53125 C 759.175781 130.234375 679.765625 50.824219 584.46875 50.824219 Z M 225.53125 50.824219 " fill-opacity="1" fill-rule="evenodd"/><path fill="#000000" d="M 405 544.765625 C 328.765625 544.765625 265.234375 481.234375 265.234375 405 C 265.234375 328.765625 328.765625 265.234375 405 265.234375 C 481.234375 265.234375 544.765625 328.765625 544.765625 405 C 544.765625 481.234375 481.234375 544.765625 405 544.765625 Z M 405 316.058594 C 355.765625 316.058594 316.058594 355.765625 316.058594 405 C 316.058594 454.234375 355.765625 493.941406 405 493.941406 C 454.234375 493.941406 493.941406 454.234375 493.941406 405 C 493.941406 355.765625 454.234375 316.058594 405 316.058594 Z M 405 316.058594 " fill-opacity="1" fill-rule="evenodd"/><path fill="#000000" d="M 405 633.707031 C 279.53125 633.707031 176.292969 530.46875 176.292969 405 C 176.292969 279.53125 279.53125 176.292969 405 176.292969 C 530.46875 176.292969 633.707031 279.53125 633.707031 405 C 633.707031 530.46875 530.46875 633.707031 405 633.707031 Z M 405 227.117188 C 306.53125 227.117188 227.117188 306.53125 227.117188 405 C 227.117188 503.46875 306.53125 582.882812 405 582.882812 C 503.46875 582.882812 582.882812 503.46875 582.882812 405 C 582.882812 306.53125 503.46875 227.117188 405 227.117188 Z M 405 227.117188 " fill-opacity="1" fill-rule="evenodd"/><path fill="#000000" d="M 217.589844 187.410156 L 162 187.410156 C 147.707031 187.410156 136.589844 176.292969 136.589844 162 C 136.589844 147.707031 147.707031 136.589844 162 136.589844 L 217.589844 136.589844 C 231.882812 136.589844 243 147.707031 243 162 C 243 176.292969 231.882812 187.410156 217.589844 187.410156 Z M 217.589844 187.410156 " fill-opacity="1" fill-rule="evenodd"/></svg>