<svg xmlns="http://www.w3.org/2000/svg" xmlns:xlink="http://www.w3.org/1999/xlink" width="1080" zoomAndPan="magnify" viewBox="0 0 810 809.999993" height="1080" preserveAspectRatio="xMidYMid meet" version="1.0"><defs><clipPath id="a776416f7f"><path d="M 2 0 L 807.75 0 L 807.75 806 L 2 806 Z M 2 0 " clip-rule="nonzero"/></clipPath></defs><g clip-path="url(#a776416f7f)"><path fill="#000000" d="M 403.703125 0.738281 C 179.359375 1.492188 0.0546875 183.90625 2.984375 408.230469 C 3.117188 419.503906 3.726562 430.746094 4.808594 441.96875 C 5.890625 453.1875 7.445312 464.339844 9.46875 475.429688 C 11.492188 486.515625 13.980469 497.5 16.933594 508.375 C 19.882812 519.253906 23.289062 529.988281 27.148438 540.578125 C 31.003906 551.167969 35.304688 561.578125 40.039062 571.804688 C 44.777344 582.03125 49.9375 592.042969 55.519531 601.835938 C 61.101562 611.625 67.089844 621.164062 73.476562 630.449219 C 79.863281 639.738281 86.632812 648.738281 93.78125 657.453125 C 94.902344 658.828125 95.917969 660.28125 96.824219 661.808594 C 97.730469 663.335938 98.515625 664.921875 99.1875 666.566406 C 99.855469 668.210938 100.398438 669.898438 100.8125 671.625 C 101.230469 673.351562 101.515625 675.101562 101.667969 676.867188 C 101.824219 678.636719 101.847656 680.410156 101.734375 682.183594 C 101.625 683.953125 101.382812 685.710938 101.011719 687.445312 C 100.640625 689.183594 100.140625 690.882812 99.511719 692.542969 C 98.886719 694.203125 98.136719 695.808594 97.269531 697.359375 L 62.632812 759.4375 C 53.027344 776.648438 68.675781 796.996094 87.773438 792.132812 L 205.101562 762.261719 C 207.132812 761.746094 209.191406 761.410156 211.28125 761.257812 C 213.371094 761.105469 215.457031 761.132812 217.539062 761.347656 C 219.625 761.5625 221.671875 761.957031 223.6875 762.53125 C 225.703125 763.105469 227.648438 763.847656 229.535156 764.765625 C 242.46875 771.050781 255.703125 776.621094 269.238281 781.476562 C 282.773438 786.335938 296.527344 790.449219 310.507812 793.824219 C 324.484375 797.199219 338.605469 799.8125 352.863281 801.664062 C 367.125 803.515625 381.441406 804.597656 395.820312 804.90625 C 621.378906 810.003906 806.515625 629.769531 807.222656 404.15625 C 807.917969 181.011719 626.859375 -0.015625 403.703125 0.738281 Z M 405.085938 755.457031 C 399.316406 755.457031 393.550781 755.316406 387.785156 755.03125 C 382.023438 754.75 376.269531 754.324219 370.527344 753.761719 C 364.785156 753.195312 359.0625 752.488281 353.351562 751.640625 C 347.644531 750.796875 341.960938 749.808594 336.300781 748.683594 C 330.640625 747.558594 325.015625 746.292969 319.417969 744.890625 C 313.820312 743.488281 308.261719 741.953125 302.738281 740.277344 C 297.214844 738.601562 291.738281 736.792969 286.304688 734.847656 C 280.871094 732.90625 275.492188 730.828125 270.160156 728.621094 C 264.828125 726.414062 259.554688 724.074219 254.339844 721.609375 C 249.121094 719.140625 243.96875 716.546875 238.878906 713.828125 C 233.792969 711.105469 228.773438 708.261719 223.824219 705.296875 C 218.875 702.332031 214 699.246094 209.203125 696.039062 C 204.40625 692.832031 199.6875 689.511719 195.054688 686.074219 C 190.417969 682.636719 185.871094 679.085938 181.410156 675.425781 C 176.949219 671.765625 172.582031 668 168.304688 664.125 C 164.03125 660.25 159.851562 656.269531 155.773438 652.191406 C 151.691406 648.109375 147.714844 643.933594 143.839844 639.65625 C 139.964844 635.382812 136.195312 631.011719 132.535156 626.550781 C 128.875 622.09375 125.328125 617.542969 121.890625 612.910156 C 118.453125 608.273438 115.128906 603.558594 111.925781 598.761719 C 108.71875 593.960938 105.632812 589.089844 102.664062 584.140625 C 99.699219 579.191406 96.855469 574.171875 94.136719 569.082031 C 91.414062 563.992188 88.820312 558.839844 86.355469 553.625 C 83.886719 548.40625 81.550781 543.132812 79.339844 537.800781 C 77.132812 532.472656 75.058594 527.089844 73.113281 521.65625 C 71.167969 516.222656 69.359375 510.746094 67.683594 505.222656 C 66.007812 499.703125 64.472656 494.140625 63.070312 488.542969 C 61.667969 482.949219 60.402344 477.320312 59.277344 471.660156 C 58.152344 466 57.164062 460.316406 56.320312 454.609375 C 55.472656 448.898438 54.765625 443.175781 54.199219 437.433594 C 53.632812 431.691406 53.210938 425.9375 52.925781 420.171875 C 52.644531 414.410156 52.503906 408.644531 52.503906 402.871094 C 52.503906 208.148438 210.363281 50.289062 405.089844 50.289062 C 599.058594 50.289062 756.445312 206.921875 757.664062 400.605469 C 758.890625 594.941406 599.429688 755.457031 405.085938 755.457031 Z M 405.085938 755.457031 " fill-opacity="1" fill-rule="nonzero"/></g><path fill="#000000" d="M 342.070312 231.457031 L 342.234375 231.78125 L 363.261719 273.488281 C 363.828125 274.605469 364.347656 275.746094 364.820312 276.910156 C 365.292969 278.070312 365.714844 279.25 366.09375 280.445312 C 366.472656 281.640625 366.800781 282.847656 367.082031 284.070312 C 367.363281 285.292969 367.59375 286.527344 367.773438 287.765625 C 367.953125 289.007812 368.085938 290.253906 368.167969 291.503906 C 368.246094 292.757812 368.277344 294.007812 368.257812 295.261719 C 368.238281 296.515625 368.167969 297.765625 368.046875 299.015625 C 367.925781 300.261719 367.753906 301.503906 367.53125 302.738281 C 367.3125 303.972656 367.042969 305.195312 366.722656 306.410156 C 366.402344 307.621094 366.035156 308.820312 365.621094 310.003906 C 365.203125 311.1875 364.742188 312.351562 364.230469 313.496094 C 363.722656 314.640625 363.164062 315.765625 362.566406 316.867188 C 361.964844 317.96875 361.320312 319.042969 360.636719 320.089844 C 359.949219 321.140625 359.21875 322.160156 358.453125 323.152344 C 357.683594 324.140625 356.875 325.097656 356.027344 326.023438 C 355.183594 326.949219 354.300781 327.839844 353.382812 328.695312 C 352.46875 329.542969 351.589844 330.425781 350.75 331.34375 C 349.90625 332.261719 349.101562 333.214844 348.332031 334.195312 C 347.566406 335.179688 346.839844 336.191406 346.15625 337.234375 C 345.46875 338.273438 344.828125 339.34375 344.226562 340.433594 C 343.628906 341.527344 343.074219 342.644531 342.5625 343.78125 C 342.050781 344.917969 341.589844 346.074219 341.171875 347.25 C 340.753906 348.421875 340.382812 349.613281 340.0625 350.816406 C 339.738281 352.019531 339.464844 353.234375 339.242188 354.460938 C 339.015625 355.6875 338.839844 356.921875 338.714844 358.164062 C 338.589844 359.402344 338.515625 360.644531 338.488281 361.890625 C 338.460938 363.140625 338.484375 364.382812 338.558594 365.628906 C 338.632812 366.875 338.757812 368.113281 338.929688 369.347656 C 339.105469 370.582031 339.328125 371.808594 339.597656 373.023438 C 339.871094 374.242188 340.191406 375.445312 340.558594 376.636719 C 340.929688 377.828125 341.34375 379 341.804688 380.160156 C 342.269531 381.316406 342.777344 382.453125 343.332031 383.570312 C 355.953125 408.917969 377.828125 443.859375 411.203125 469.074219 C 413.0625 470.484375 415.015625 471.75 417.066406 472.871094 C 419.117188 473.992188 421.238281 474.953125 423.429688 475.753906 C 425.621094 476.558594 427.863281 477.191406 430.152344 477.660156 C 432.441406 478.125 434.75 478.421875 437.082031 478.542969 C 439.414062 478.664062 441.742188 478.613281 444.066406 478.386719 C 446.390625 478.160156 448.683594 477.761719 450.949219 477.191406 C 453.214844 476.625 455.425781 475.890625 457.578125 474.988281 C 459.734375 474.089844 461.808594 473.035156 463.808594 471.824219 L 477.351562 463.582031 C 478.863281 462.660156 480.425781 461.828125 482.03125 461.085938 C 483.640625 460.34375 485.285156 459.691406 486.96875 459.136719 C 488.652344 458.578125 490.359375 458.121094 492.09375 457.757812 C 493.828125 457.398438 495.578125 457.136719 497.34375 456.972656 C 499.105469 456.808594 500.875 456.746094 502.648438 456.785156 C 504.417969 456.824219 506.183594 456.964844 507.9375 457.203125 C 509.691406 457.441406 511.429688 457.78125 513.148438 458.21875 C 514.863281 458.65625 516.550781 459.1875 518.207031 459.816406 L 572.035156 480.285156 C 573.464844 480.828125 574.867188 481.441406 576.234375 482.121094 C 577.605469 482.800781 578.9375 483.550781 580.234375 484.359375 C 581.53125 485.171875 582.785156 486.046875 583.992188 486.980469 C 585.203125 487.917969 586.367188 488.910156 587.480469 489.957031 C 588.589844 491.007812 589.648438 492.109375 590.65625 493.261719 C 591.660156 494.417969 592.605469 495.617188 593.492188 496.863281 C 594.378906 498.109375 595.203125 499.394531 595.960938 500.722656 C 596.722656 502.050781 597.417969 503.410156 598.042969 504.804688 C 598.667969 506.199219 599.226562 507.625 599.714844 509.074219 C 600.199219 510.523438 600.613281 511.996094 600.957031 513.484375 C 601.300781 514.976562 601.566406 516.480469 601.761719 517.996094 C 601.957031 519.515625 602.078125 521.035156 602.121094 522.566406 C 602.167969 524.09375 602.136719 525.621094 602.03125 527.148438 C 601.925781 528.671875 601.746094 530.191406 601.492188 531.699219 C 601.238281 533.207031 600.910156 534.699219 600.507812 536.175781 C 600.109375 537.652344 599.636719 539.105469 599.09375 540.535156 C 598.464844 542.179688 597.746094 543.78125 596.941406 545.347656 L 582.023438 574.261719 C 581.421875 575.425781 580.769531 576.566406 580.074219 577.679688 C 579.375 578.792969 578.628906 579.871094 577.839844 580.921875 C 577.050781 581.96875 576.214844 582.984375 575.339844 583.964844 C 574.464844 584.941406 573.550781 585.882812 572.59375 586.785156 C 571.640625 587.6875 570.648438 588.546875 569.621094 589.367188 C 568.59375 590.183594 567.535156 590.957031 566.441406 591.6875 C 565.347656 592.417969 564.226562 593.097656 563.078125 593.734375 C 561.925781 594.367188 560.753906 594.953125 559.554688 595.488281 C 558.355469 596.023438 557.132812 596.507812 555.894531 596.941406 C 554.652344 597.371094 553.398438 597.75 552.125 598.078125 C 550.851562 598.40625 549.570312 598.675781 548.273438 598.894531 C 546.980469 599.113281 545.675781 599.277344 544.367188 599.386719 C 543.058594 599.496094 541.746094 599.546875 540.433594 599.546875 C 539.121094 599.542969 537.808594 599.488281 536.5 599.375 C 535.191406 599.261719 533.890625 599.09375 532.59375 598.871094 C 531.300781 598.648438 530.019531 598.375 528.746094 598.042969 C 444.203125 576.171875 242.714844 500.140625 226.480469 270.230469 C 226.320312 267.960938 226.324219 265.691406 226.496094 263.425781 C 226.664062 261.15625 227 258.910156 227.5 256.691406 C 227.996094 254.472656 228.652344 252.300781 229.46875 250.175781 C 230.285156 248.054688 231.25 246 232.367188 244.019531 C 233.480469 242.035156 234.734375 240.144531 236.128906 238.34375 C 237.519531 236.542969 239.035156 234.855469 240.671875 233.277344 C 242.3125 231.699219 244.054688 230.25 245.90625 228.925781 C 247.757812 227.601562 249.695312 226.421875 251.71875 225.378906 L 279.171875 211.277344 C 280.535156 210.578125 281.925781 209.945312 283.347656 209.382812 C 284.769531 208.820312 286.214844 208.328125 287.6875 207.90625 C 289.15625 207.484375 290.644531 207.136719 292.152344 206.863281 C 293.65625 206.589844 295.171875 206.390625 296.695312 206.265625 C 298.21875 206.136719 299.746094 206.085938 301.277344 206.113281 C 302.804688 206.136719 304.332031 206.234375 305.851562 206.410156 C 307.371094 206.582031 308.878906 206.832031 310.375 207.15625 C 311.871094 207.476562 313.34375 207.871094 314.800781 208.339844 C 316.257812 208.804688 317.6875 209.34375 319.09375 209.953125 C 320.496094 210.558594 321.867188 211.234375 323.203125 211.976562 C 324.542969 212.71875 325.839844 213.527344 327.097656 214.398438 C 328.355469 215.265625 329.570312 216.195312 330.734375 217.1875 C 331.902344 218.175781 333.019531 219.21875 334.082031 220.316406 C 335.148438 221.417969 336.15625 222.566406 337.105469 223.761719 C 338.058594 224.960938 338.949219 226.203125 339.777344 227.488281 C 340.605469 228.773438 341.371094 230.097656 342.070312 231.457031 Z M 342.070312 231.457031 " fill-opacity="1" fill-rule="nonzero"/></svg>